<svg width="49" height="49" viewBox="0 0 49 49" fill="none" xmlns="http://www.w3.org/2000/svg">
<path d="M25.1077 31.1826C25.1077 31.1826 24.1066 22.8066 28.4334 18.4118C32.7603 14.0171 44.3469 8.38699 47.5299 6.46492C47.5299 6.46492 49.6402 12.8503 45.2052 18.4118C40.7712 23.9733 31.2949 27.5089 25.1077 31.1826Z" fill="#FFF0D1"/>
<path d="M22.924 31.1826C22.924 31.1826 23.9251 22.8066 19.5982 18.4118C15.2714 14.0171 3.68474 8.38699 0.501825 6.46492C0.501825 6.46492 -1.60856 12.8503 2.82651 18.4118C7.26052 23.9733 16.7368 27.5089 22.924 31.1826Z" fill="#FFF0D1"/>
<path fill-rule="evenodd" clip-rule="evenodd" d="M24.2561 18.5722C24.1787 18.6561 24.1013 18.7399 24.0187 18.8238H24.0135C21.727 16.4856 20.4522 13.5703 20.1889 10.5859C19.8534 6.82214 21.1283 2.94985 24.0187 0C29.1079 5.19923 29.1853 13.2842 24.2561 18.5722L24.2561 18.5722ZM24.6508 15.9571C25.7349 13.8094 27.2526 8.29893 24.6508 3.43831C26.2991 5.33004 28.6066 10.4822 24.6508 15.9571Z" fill="#FFF0D1"/>
<path d="M24.6922 41.3598C24.6922 41.3598 24.0719 36.1701 26.7528 33.4471C29.4337 30.7242 36.6127 27.2358 38.5848 26.045C38.5848 26.045 39.8923 30.0013 37.1444 33.4471C34.3971 36.893 28.5258 39.0836 24.6922 41.3598Z" fill="#FFF0D1"/>
<path d="M23.3393 41.3598C23.3393 41.3598 23.9596 36.1701 21.2787 33.4471C18.5978 30.7242 11.4189 27.2358 9.4468 26.045C9.4468 26.045 8.13922 30.0013 10.8871 33.4471C13.6344 36.893 19.5058 39.0836 23.3393 41.3598Z" fill="#FFF0D1"/>
<path d="M24.3328 48.3773C24.3328 48.3773 23.9486 45.1621 25.6095 43.4751C27.2704 41.7881 31.7181 39.6269 32.9399 38.8891C32.9399 38.8891 33.75 41.3402 32.0475 43.4751C30.3455 45.6099 26.7079 46.9671 24.3328 48.3773Z" fill="#FFF0D1"/>
<path d="M23.6984 48.3773C23.6984 48.3773 24.0827 45.1621 22.4217 43.4751C20.7608 41.7881 16.3131 39.6269 15.0913 38.8891C15.0913 38.8891 14.2812 41.3402 15.9837 43.4751C17.6857 45.6099 21.3233 46.9671 23.6984 48.3773Z" fill="#FFF0D1"/>
</svg>
