<svg width="44" height="45" viewBox="0 0 44 45" fill="none" xmlns="http://www.w3.org/2000/svg">
<path d="M22.8641 28.3962C22.8641 28.3962 21.9524 20.7686 25.8926 16.7665C29.8329 12.7645 40.3841 7.63753 43.2826 5.88721C43.2826 5.88721 45.2044 11.702 41.1657 16.7665C37.1279 21.8311 28.4984 25.0507 22.8641 28.3962Z" fill="#361F13"/>
<path d="M20.8754 28.3962C20.8754 28.3962 21.787 20.7686 17.8468 16.7665C13.9066 12.7645 3.35535 7.63753 0.456864 5.88721C0.456864 5.88721 -1.46494 11.702 2.57381 16.7665C6.6116 21.8311 15.2411 25.0507 20.8754 28.3962Z" fill="#361F13"/>
<path fill-rule="evenodd" clip-rule="evenodd" d="M22.0886 16.9126C22.0181 16.989 21.9476 17.0653 21.8724 17.1417H21.8677C19.7855 15.0125 18.6246 12.3577 18.3849 9.63996C18.0793 6.21252 19.2403 2.68625 21.8724 0C26.5068 4.73463 26.5773 12.0971 22.0886 16.9126L22.0886 16.9126ZM22.4481 14.5312C23.4353 12.5754 24.8174 7.55733 22.4481 3.13106C23.9491 4.85374 26.0505 9.54551 22.4481 14.5312Z" fill="#361F13"/>
<path d="M22.4856 37.6639C22.4856 37.6639 21.9208 32.9379 24.3621 30.4583C26.8034 27.9787 33.3409 24.8021 35.1367 23.7176C35.1367 23.7176 36.3275 27.3204 33.8251 30.4583C31.3233 33.5962 25.9766 35.5911 22.4856 37.6639Z" fill="#361F13"/>
<path d="M21.2535 37.6639C21.2535 37.6639 21.8184 32.9379 19.3771 30.4583C16.9357 27.9787 10.3983 24.8021 8.60242 23.7176C8.60242 23.7176 7.4117 27.3204 9.91406 30.4583C12.4158 33.5962 17.7625 35.5911 21.2535 37.6639Z" fill="#361F13"/>
<path d="M22.1584 44.0543C22.1584 44.0543 21.8085 41.1264 23.321 39.5902C24.8335 38.0539 28.8837 36.0859 29.9964 35.414C29.9964 35.414 30.7341 37.6461 29.1837 39.5902C27.6338 41.5342 24.3213 42.7701 22.1584 44.0543Z" fill="#361F13"/>
<path d="M21.5809 44.0543C21.5809 44.0543 21.9308 41.1264 20.4183 39.5902C18.9058 38.0539 14.8555 36.0859 13.7429 35.414C13.7429 35.414 13.0052 37.6461 14.5555 39.5902C16.1055 41.5342 19.418 42.7701 21.5809 44.0543Z" fill="#361F13"/>
</svg>
